<svg width="35" height="45" viewBox="0 0 35 45" fill="none" xmlns="http://www.w3.org/2000/svg">
<path fill-rule="evenodd" clip-rule="evenodd" d="M26.25 8.4375H8.75C8.05875 8.4375 7.5 9.0675 7.5 9.84375C7.5 10.6214 8.05875 11.25 8.75 11.25H26.25C26.9412 11.25 27.5 10.6214 27.5 9.84375C27.5 9.0675 26.9412 8.4375 26.25 8.4375ZM26.25 16.8441H8.75C8.05875 16.8441 7.5 17.4727 7.5 18.2504C7.5 19.0252 8.05875 19.6566 8.75 19.6566H26.25C26.9412 19.6566 27.5 19.0252 27.5 18.2504C27.5 17.4727 26.9412 16.8441 26.25 16.8441ZM26.25 25.3125H8.75C8.05875 25.3125 7.5 25.9411 7.5 26.7188C7.5 27.4964 8.05875 28.125 8.75 28.125H26.25C26.9412 28.125 27.5 27.4964 27.5 26.7188C27.5 25.9411 26.9412 25.3125 26.25 25.3125ZM32.5 42.2254L27.5 37.9688L22.5 42.4519L17.5 37.9688L12.5 42.4519L7.5 37.9688L2.5 42.2705V5.625C2.5 4.0725 3.62 2.8125 5 2.8125H30C31.38 2.8125 32.5 4.0725 32.5 5.625V42.2254ZM30 0H5C2.23875 0 0 2.51859 0 5.625V45H2.33376L7.5 40.7812L12.5 45L17.5 40.7812L22.5 45L27.5 40.7812L32.6675 45H35V5.625C35 2.51859 32.7613 0 30 0Z" fill="white"/>
</svg>
