<svg width="44" height="39" viewBox="0 0 44 39" fill="none" xmlns="http://www.w3.org/2000/svg">
<path d="M32 0C32.55 0 33.021 0.196 33.413 0.588C33.8043 0.979333 34 1.45 34 2V22C34 22.55 33.8043 23.021 33.413 23.413C33.021 23.8043 32.55 24 32 24H26L17.15 37.05C16.85 37.5 16.446 37.75 15.938 37.8C15.4293 37.85 15.0167 37.6667 14.7 37.25C14.2667 36.6833 14.05 36.0667 14.05 35.4V30.5C14.05 30.3833 14.0583 30.2667 14.075 30.15C14.0917 30.0333 14.1167 29.9167 14.15 29.8L17.2 22H7C6.45 22 5.97933 21.8043 5.588 21.413C5.196 21.021 5 20.55 5 20C5 19.8833 5.00833 19.7583 5.025 19.625C5.04167 19.4917 5.06667 19.3667 5.1 19.25L10.1 2.25C10.3 1.6 10.6667 1.08333 11.2 0.7C11.7333 0.316667 12.3333 0.125 13 0.125H24C24.2833 0.125 24.5627 0.154 24.838 0.212C25.1127 0.270667 25.3833 0.35 25.65 0.45L32 2.95V0ZM42 0V22H36V0H42Z" fill="#fff" stroke="#fff" stroke-width="2"/>
</svg>