<svg width="56" height="55" viewBox="0 0 56 55" fill="none" xmlns="http://www.w3.org/2000/svg">
<path d="M33.3333 51.0004V35.0004H22.6667V51.0004M46.6667 21.0753V38.2004C46.6667 42.6807 46.6667 44.921 45.7947 46.6322C45.0277 48.1375 43.804 49.3615 42.2987 50.1284C40.5872 51.0004 38.3472 51.0004 33.8667 51.0004H22.1333C17.6529 51.0004 15.4127 51.0004 13.7014 50.1284C12.1961 49.3615 10.9723 48.1375 10.2053 46.6322C9.33333 44.921 9.33333 42.6807 9.33333 38.2004V21.0736M52 27.0004L37.5115 10.9043C34.2163 7.2436 32.5688 5.41323 30.6283 4.73752C28.9243 4.144 27.0693 4.14414 25.3651 4.7379C23.4248 5.41392 21.7776 7.24451 18.483 10.9057L4 27.0004" stroke="white" stroke-width="7" stroke-linecap="round" stroke-linejoin="round"/>
<rect x="11" y="16" width="10" height="33" fill="white"/>
<rect x="14" y="14" width="30" height="19" fill="white"/>
<rect x="20" y="6" width="16" height="19" fill="white"/>
<rect x="33" y="30" width="14" height="19" fill="white"/>
</svg>
