<svg width="44" height="39" viewBox="0 0 44 39" fill="none" xmlns="http://www.w3.org/2000/svg">
<path d="M12 39C11.45 39 10.9793 38.8043 10.588 38.413C10.196 38.021 10 37.55 10 37V17C10 16.45 10.196 15.9793 10.588 15.588C10.9793 15.196 11.45 15 12 15H18L26.85 1.95C27.15 1.5 27.5543 1.25 28.063 1.2C28.571 1.15 28.9833 1.33333 29.3 1.75C29.7333 2.31667 29.95 2.93333 29.95 3.6V8.5C29.95 8.61667 29.9417 8.73333 29.925 8.85C29.9083 8.96667 29.8833 9.08333 29.85 9.2L26.8 17H37C37.55 17 38.021 17.196 38.413 17.588C38.8043 17.9793 39 18.45 39 19C39 19.1167 38.9917 19.2417 38.975 19.375C38.9583 19.5083 38.9333 19.6333 38.9 19.75L33.9 36.75C33.7 37.4 33.3333 37.9167 32.8 38.3C32.2667 38.6833 31.6667 38.875 31 38.875H20C19.7167 38.875 19.4377 38.846 19.163 38.788C18.8877 38.7293 18.6167 38.65 18.35 38.55L12 36.05V39ZM2 39V17H8V39H2Z" fill="#fff" stroke="#fff" stroke-width="2"/>
</svg>