<svg width="39" height="39" viewBox="0 0 39 39" fill="none" xmlns="http://www.w3.org/2000/svg">
<path d="M36 19.5C36 28.6128 28.6128 36 19.5 36C10.3873 36 3 28.6128 3 19.5C3 10.3873 10.3873 3 19.5 3C28.6128 3 36 10.3873 36 19.5Z" stroke="white" stroke-width="5.33333" stroke-linecap="round" stroke-linejoin="round"/>
<path d="M25.0027 18.2796C25.6149 18.6875 25.9209 18.8916 26.0276 19.1488C26.1207 19.3736 26.1207 19.6262 26.0276 19.851C25.9209 20.1082 25.6149 20.3122 25.0027 20.7202L18.1136 25.313C17.3728 25.8069 17.0024 26.0539 16.6953 26.0355C16.4279 26.0194 16.1805 25.8872 16.0188 25.6735C15.8333 25.4282 15.8333 24.983 15.8333 24.0928V14.907C15.8333 14.0168 15.8333 13.5717 16.0188 13.3263C16.1805 13.1126 16.4279 12.9803 16.6953 12.9643C17.0024 12.946 17.3728 13.1929 18.1136 13.6867L25.0027 18.2796Z" stroke="white" stroke-width="3" stroke-linecap="round" stroke-linejoin="round"/>
</svg>
