<svg width="44" height="33" viewBox="0 0 44 33" fill="none" xmlns="http://www.w3.org/2000/svg">
<path d="M3 9.17143C3 7.01122 3 5.93112 3.4602 5.10604C3.86499 4.38026 4.5109 3.79019 5.30538 3.42041C6.20855 3 7.3909 3 9.75556 3H17.0907C18.1234 3 18.6397 3 19.1257 3.10657C19.5564 3.20105 19.9683 3.3569 20.3462 3.56839C20.7722 3.80691 21.1374 4.14046 21.8676 4.80757L22.1324 5.04957C22.8626 5.71668 23.2278 6.05023 23.6538 6.28875C24.0317 6.50024 24.4436 6.65609 24.8743 6.75057C25.3603 6.85714 25.8766 6.85714 26.9094 6.85714H34.2444C36.6091 6.85714 37.7915 6.85714 38.6947 7.27755C39.4891 7.64734 40.1351 8.2374 40.5398 8.96318C41 9.78826 41 10.8684 41 13.0286V23.8286C41 25.9888 41 27.069 40.5398 27.894C40.1351 28.6197 39.4891 29.2099 38.6947 29.5796C37.7915 30 36.6091 30 34.2444 30H9.75556C7.39088 30 6.20855 30 5.30538 29.5796C4.5109 29.2099 3.86499 28.6197 3.4602 27.894C3 27.069 3 25.9888 3 23.8286V9.17143Z" stroke="white" stroke-width="5.33333" stroke-linecap="round" stroke-linejoin="round"/>
<path fill-rule="evenodd" clip-rule="evenodd" d="M21.9949 14.016C20.5176 12.5135 18.0541 12.1093 16.2032 13.4853C14.3522 14.8611 14.0917 17.1617 15.5452 18.789C16.3658 19.7078 18.3157 21.3184 19.8581 22.5469C20.5896 23.1295 20.9552 23.4209 21.3977 23.5401C21.775 23.6417 22.2149 23.6417 22.5922 23.5401C23.0347 23.4209 23.4003 23.1295 24.1318 22.5469C25.6742 21.3184 27.624 19.7078 28.4446 18.789C29.8983 17.1617 29.6695 14.8467 27.7868 13.4853C25.9039 12.1237 23.4723 12.5135 21.9949 14.016Z" stroke="white" stroke-width="2" stroke-linecap="round" stroke-linejoin="round"/>
</svg>
